<?xml version="1.0" encoding="utf-8"?><svg xml:space="preserve" viewBox="0 0 100 100" y="0" x="0" xmlns="http://www.w3.org/2000/svg" id="圖層_1" version="1.1" width="128px" height="128px" xmlns:xlink="http://www.w3.org/1999/xlink" style="width:100%;height:100%;background-size:initial;background-repeat-y:initial;background-repeat-x:initial;background-position-y:initial;background-position-x:initial;background-origin:initial;background-color:initial;background-clip:initial;background-attachment:initial;animation-play-state:paused" ><g class="ldl-scale" style="transform-origin:50% 50%;transform:rotate(0deg) scale(0.8, 0.8);animation-play-state:paused" ><path stroke-miterlimit="10" stroke-linejoin="round" stroke-linecap="round" stroke-width="3.5" stroke="#333" fill="#666" d="M71 39.094c-3.355 0-6.502.877-9.237 2.403C66.165 38.017 69 32.641 69 26.594c0-10.493-8.507-19-19-19-10.494 0-19 8.507-19 19 0 6.047 2.835 11.423 7.237 14.903A18.9 18.9 0 0 0 29 39.094c-10.494 0-19 8.507-19 19s8.507 19 19 19c5.33 0 10.14-2.201 13.591-5.736L36.14 92.407h27.455l-6.491-21.386c3.469 3.727 8.403 6.073 13.897 6.073 10.493 0 19-8.507 19-19s-8.508-19-19.001-19z" style="stroke:rgb(51, 51, 51);fill:rgb(102, 102, 102);animation-play-state:paused" ></path>
<metadata xmlns:d="https://loading.io/stock/" style="animation-play-state:paused" ><d:name style="animation-play-state:paused" >card</d:name>


<d:tags style="animation-play-state:paused" >card,poker,gambling,casino,game,suit,french deck,club</d:tags>


<d:license style="animation-play-state:paused" >by</d:license>


<d:slug style="animation-play-state:paused" >k6u7bq</d:slug></metadata></g><!-- generated by https://loading.io/ --></svg>