<?xml version="1.0" encoding="utf-8"?><svg xml:space="preserve" viewBox="0 0 100 100" y="0" x="0" xmlns="http://www.w3.org/2000/svg" id="圖層_1" version="1.1" width="128px" height="128px" xmlns:xlink="http://www.w3.org/1999/xlink" style="width:100%;height:100%;background-size:initial;background-repeat-y:initial;background-repeat-x:initial;background-position-y:initial;background-position-x:initial;background-origin:initial;background-color:initial;background-clip:initial;background-attachment:initial;animation-play-state:paused" ><g class="ldl-scale" style="transform-origin:50% 50%;transform:rotate(0deg) scale(0.8, 0.8);animation-play-state:paused" ><path stroke-miterlimit="10" stroke-linejoin="round" stroke-linecap="round" stroke-width="3.5" stroke="#333" fill="#666" d="M50 9.307S10 35.761 10 57.852v.265c0 11.046 8.954 20 20 20h0c5.698 0 9.467-2.556 13.038-6.335.759-.803 2.073-.021 1.712 1.023l-6.195 17.888h22.89L55.25 72.805c-.361-1.044.953-1.825 1.712-1.023 3.572 3.779 7.34 6.335 13.038 6.335h0c11.046 0 20-8.954 20-20v-.265C90 35.761 50 9.307 50 9.307z" style="stroke:rgb(51, 51, 51);fill:rgb(102, 102, 102);animation-play-state:paused" ></path>
<metadata xmlns:d="https://loading.io/stock/" style="animation-play-state:paused" ><d:name style="animation-play-state:paused" >card</d:name>


<d:tags style="animation-play-state:paused" >card,poker,gambling,casino,game,suit,french deck,spade</d:tags>


<d:license style="animation-play-state:paused" >by</d:license>


<d:slug style="animation-play-state:paused" >tewabq</d:slug></metadata></g><!-- generated by https://loading.io/ --></svg>